<svg width="480" height="260" viewBox="0 0 480 260" fill="none" xmlns="http://www.w3.org/2000/svg" role="img" aria-label="Oscar Sinaga GitHub statistics">
<rect x="0.5" y="0.5" width="479" height="259" rx="10" fill="#1a1b27" stroke="#2a2e42"/>
<text x="25" y="35" font-family="Segoe UI,Verdana,sans-serif" font-size="17" font-weight="700" fill="#70a5fd">Oscar Sinaga — GitHub Stats</text>
<text x="25" y="68" font-family="Segoe UI,Verdana,sans-serif" font-size="13" fill="#a9b1d6">Public repositories</text>
<text x="230" y="68" font-family="Segoe UI,Verdana,sans-serif" font-size="13" font-weight="700" fill="#c0caf5" text-anchor="end">28</text>
<text x="25" y="94" font-family="Segoe UI,Verdana,sans-serif" font-size="13" fill="#a9b1d6">Stars earned</text>
<text x="230" y="94" font-family="Segoe UI,Verdana,sans-serif" font-size="13" font-weight="700" fill="#c0caf5" text-anchor="end">3</text>
<text x="25" y="120" font-family="Segoe UI,Verdana,sans-serif" font-size="13" fill="#a9b1d6">Followers</text>
<text x="230" y="120" font-family="Segoe UI,Verdana,sans-serif" font-size="13" font-weight="700" fill="#c0caf5" text-anchor="end">3</text>
<text x="25" y="146" font-family="Segoe UI,Verdana,sans-serif" font-size="13" fill="#a9b1d6">Following</text>
<text x="230" y="146" font-family="Segoe UI,Verdana,sans-serif" font-size="13" font-weight="700" fill="#c0caf5" text-anchor="end">6</text>
<text x="25" y="172" font-family="Segoe UI,Verdana,sans-serif" font-size="13" fill="#a9b1d6">Member since</text>
<text x="230" y="172" font-family="Segoe UI,Verdana,sans-serif" font-size="13" font-weight="700" fill="#c0caf5" text-anchor="end">2021</text>
<text x="260" y="62" font-family="Segoe UI,Verdana,sans-serif" font-size="13" font-weight="700" fill="#bf91f3">Top Languages</text>
<circle cx="265" cy="80" r="5" fill="#DA5B0B"/>
<text x="278" y="84" font-family="Segoe UI,Verdana,sans-serif" font-size="12" fill="#c0caf5">Jupyter Notebook</text>
<text x="455" y="84" font-family="Segoe UI,Verdana,sans-serif" font-size="11" fill="#a9b1d6" text-anchor="end">60.0%</text>
<rect x="278" y="88" width="150" height="4" rx="2" fill="#2a2e42"/>
<rect x="278" y="88" width="90" height="4" rx="2" fill="#DA5B0B"/>
<circle cx="265" cy="108" r="5" fill="#3572A5"/>
<text x="278" y="112" font-family="Segoe UI,Verdana,sans-serif" font-size="12" fill="#c0caf5">Python</text>
<text x="455" y="112" font-family="Segoe UI,Verdana,sans-serif" font-size="11" fill="#a9b1d6" text-anchor="end">30.0%</text>
<rect x="278" y="116" width="150" height="4" rx="2" fill="#2a2e42"/>
<rect x="278" y="116" width="45" height="4" rx="2" fill="#3572A5"/>
<circle cx="265" cy="136" r="5" fill="#41b883"/>
<text x="278" y="140" font-family="Segoe UI,Verdana,sans-serif" font-size="12" fill="#c0caf5">Vue</text>
<text x="455" y="140" font-family="Segoe UI,Verdana,sans-serif" font-size="11" fill="#a9b1d6" text-anchor="end">5.0%</text>
<rect x="278" y="144" width="150" height="4" rx="2" fill="#2a2e42"/>
<rect x="278" y="144" width="8" height="4" rx="2" fill="#41b883"/>
<circle cx="265" cy="164" r="5" fill="#3178c6"/>
<text x="278" y="168" font-family="Segoe UI,Verdana,sans-serif" font-size="12" fill="#c0caf5">TypeScript</text>
<text x="455" y="168" font-family="Segoe UI,Verdana,sans-serif" font-size="11" fill="#a9b1d6" text-anchor="end">4.0%</text>
<rect x="278" y="172" width="150" height="4" rx="2" fill="#2a2e42"/>
<rect x="278" y="172" width="6" height="4" rx="2" fill="#3178c6"/>
<circle cx="265" cy="192" r="5" fill="#ff3e00"/>
<text x="278" y="196" font-family="Segoe UI,Verdana,sans-serif" font-size="12" fill="#c0caf5">Svelte</text>
<text x="455" y="196" font-family="Segoe UI,Verdana,sans-serif" font-size="11" fill="#a9b1d6" text-anchor="end">1.0%</text>
<rect x="278" y="200" width="150" height="4" rx="2" fill="#2a2e42"/>
<rect x="278" y="200" width="4" height="4" rx="2" fill="#ff3e00"/>
</svg>